<mxfile host="65bd71144e">
    <diagram id="rOhNWZg4kqReY9OZdnnV" name="Page-1">
        <mxGraphModel dx="1190" dy="725" grid="1" gridSize="10" guides="1" tooltips="1" connect="1" arrows="1" fold="1" page="1" pageScale="1" pageWidth="1169" pageHeight="1654" background="#161313" math="0" shadow="0">
            <root>
                <mxCell id="0"/>
                <mxCell id="1" parent="0"/>
                <mxCell id="78" value="" style="group;fillColor=#18141D;fontColor=#F0F0F0;labelBorderColor=none;strokeColor=#F0F0F0;" parent="1" vertex="1" connectable="0">
                    <mxGeometry x="30" y="1234" width="683.2432432432433" height="420" as="geometry"/>
                </mxCell>
                <mxCell id="85" value="粒子系統模組" style="swimlane;whiteSpace=wrap;html=1;fontSize=20;fillColor=#18141D;fontColor=#F0F0F0;labelBorderColor=none;strokeColor=#F0F0F0;" parent="78" vertex="1">
                    <mxGeometry y="-20" width="683.2432432432433" height="420" as="geometry"/>
                </mxCell>
                <mxCell id="148" value="" style="edgeStyle=orthogonalEdgeStyle;html=1;strokeWidth=1;fontSize=20;fillColor=#4f4f4f;shape=link;labelBackgroundColor=#18141D;fontColor=#F0F0F0;strokeColor=#F0F0F0;" parent="85" source="91" edge="1">
                    <mxGeometry relative="1" as="geometry">
                        <mxPoint x="494.32000000000016" y="143" as="targetPoint"/>
                    </mxGeometry>
                </mxCell>
                <mxCell id="156" value="" style="edgeStyle=orthogonalEdgeStyle;shape=link;html=1;strokeWidth=1;fontSize=20;fillColor=#4f4f4f;labelBackgroundColor=#18141D;fontColor=#F0F0F0;strokeColor=#F0F0F0;" parent="85" source="91" target="155" edge="1">
                    <mxGeometry relative="1" as="geometry"/>
                </mxCell>
                <mxCell id="158" value="" style="edgeStyle=orthogonalEdgeStyle;shape=link;html=1;strokeWidth=1;fontSize=20;fillColor=#4f4f4f;labelBackgroundColor=#18141D;fontColor=#F0F0F0;strokeColor=#F0F0F0;" parent="85" source="91" edge="1">
                    <mxGeometry relative="1" as="geometry">
                        <Array as="points">
                            <mxPoint x="400" y="143"/>
                            <mxPoint x="400" y="346"/>
                        </Array>
                        <mxPoint x="494.32324324324327" y="346" as="targetPoint"/>
                    </mxGeometry>
                </mxCell>
                <mxCell id="91" value="&lt;div style=&quot;&quot;&gt;&lt;span style=&quot;background-color: initial;&quot;&gt;管理員物件&lt;/span&gt;&lt;/div&gt;" style="rounded=0;whiteSpace=wrap;html=1;fontSize=20;align=right;fillColor=#18141D;fontColor=#F0F0F0;labelBorderColor=none;strokeColor=#F0F0F0;" parent="85" vertex="1">
                    <mxGeometry x="27.16216216216216" y="40" width="344.05405405405406" height="206" as="geometry"/>
                </mxCell>
                <mxCell id="86" value="粒子建構式" style="ellipse;whiteSpace=wrap;html=1;fontSize=20;fillColor=#18141D;fontColor=#F0F0F0;labelBorderColor=none;strokeColor=#F0F0F0;" parent="85" vertex="1">
                    <mxGeometry x="144.86486486486487" y="330" width="108.64864864864865" height="80" as="geometry"/>
                </mxCell>
                <mxCell id="87" value="粒子系統&amp;nbsp;&amp;nbsp;" style="rounded=0;whiteSpace=wrap;html=1;fontSize=20;align=right;fillColor=#18141D;fontColor=#F0F0F0;labelBorderColor=none;strokeColor=#F0F0F0;" parent="85" vertex="1">
                    <mxGeometry x="36.21621621621622" y="70" width="217.2972972972973" height="166" as="geometry"/>
                </mxCell>
                <mxCell id="89" value="" style="edgeStyle=orthogonalEdgeStyle;shape=flexArrow;html=1;fontSize=20;entryX=0.75;entryY=1;entryDx=0;entryDy=0;fillColor=#302d34;labelBackgroundColor=#18141D;fontColor=#F0F0F0;strokeColor=#F0F0F0;" parent="85" source="86" target="87" edge="1">
                    <mxGeometry relative="1" as="geometry"/>
                </mxCell>
                <mxCell id="90" value="管理員&lt;br&gt;建構式" style="ellipse;whiteSpace=wrap;html=1;fontSize=20;fillColor=#18141D;fontColor=#F0F0F0;labelBorderColor=none;strokeColor=#F0F0F0;" parent="85" vertex="1">
                    <mxGeometry x="235.4054054054054" y="280" width="99.5945945945946" height="73.33" as="geometry"/>
                </mxCell>
                <mxCell id="92" value="" style="edgeStyle=none;shape=flexArrow;html=1;fontSize=20;entryX=0.75;entryY=1;entryDx=0;entryDy=0;labelBackgroundColor=#18141D;fontColor=#F0F0F0;strokeColor=#F0F0F0;" parent="85" source="90" target="91" edge="1">
                    <mxGeometry relative="1" as="geometry"/>
                </mxCell>
                <mxCell id="81" value="畫筆" style="rounded=0;whiteSpace=wrap;html=1;fontSize=20;fillColor=#18141D;fontColor=#F0F0F0;labelBorderColor=none;strokeColor=#F0F0F0;" parent="85" vertex="1">
                    <mxGeometry x="45.27027027027027" y="170" width="108.64864864864865" height="60" as="geometry"/>
                </mxCell>
                <mxCell id="79" value="畫筆建構式" style="ellipse;whiteSpace=wrap;html=1;fontSize=20;fillColor=#18141D;fontColor=#F0F0F0;labelBorderColor=none;strokeColor=#F0F0F0;" parent="85" vertex="1">
                    <mxGeometry x="45.27027027027027" y="270" width="108.64864864864865" height="80" as="geometry"/>
                </mxCell>
                <mxCell id="82" value="" style="edgeStyle=none;shape=flexArrow;html=1;fontSize=20;fillColor=#4f4f4f;labelBackgroundColor=#18141D;fontColor=#F0F0F0;strokeColor=#F0F0F0;" parent="85" source="79" target="81" edge="1">
                    <mxGeometry relative="1" as="geometry"/>
                </mxCell>
                <mxCell id="155" value="封裝函式" style="whiteSpace=wrap;html=1;fontSize=20;align=center;rounded=0;fillColor=#18141D;fontColor=#F0F0F0;labelBorderColor=none;strokeColor=#F0F0F0;" parent="85" vertex="1">
                    <mxGeometry x="495.00324324324333" y="210" width="120" height="60" as="geometry"/>
                </mxCell>
                <mxCell id="173" value="" style="group;fillColor=#18141D;fontColor=#F0F0F0;labelBorderColor=none;strokeColor=#F0F0F0;" parent="1" vertex="1" connectable="0">
                    <mxGeometry x="100" y="50" width="850" height="420" as="geometry"/>
                </mxCell>
                <mxCell id="25" value="獨立作用域 local" style="swimlane;whiteSpace=wrap;html=1;fontSize=20;container=0;fillColor=#18141D;fontColor=#F0F0F0;labelBorderColor=none;strokeColor=#F0F0F0;" parent="173" vertex="1">
                    <mxGeometry width="850" height="420" as="geometry"/>
                </mxCell>
                <mxCell id="11" value="封裝函式" style="rounded=0;whiteSpace=wrap;html=1;fontSize=20;fillColor=#18141D;fontColor=#F0F0F0;labelBorderColor=none;strokeColor=#F0F0F0;" parent="25" vertex="1">
                    <mxGeometry x="50" y="60" width="120" height="60" as="geometry"/>
                </mxCell>
                <mxCell id="132" value="事件監聽" style="rounded=0;whiteSpace=wrap;html=1;fontSize=20;fillColor=#18141D;fontColor=#F0F0F0;labelBorderColor=none;strokeColor=#F0F0F0;" parent="25" vertex="1">
                    <mxGeometry x="705" y="120" width="120" height="60" as="geometry"/>
                </mxCell>
                <mxCell id="5" value="粒子建構式" style="ellipse;whiteSpace=wrap;html=1;fontSize=20;fillColor=#18141D;fontColor=#F0F0F0;labelBorderColor=none;strokeColor=#F0F0F0;" parent="173" vertex="1">
                    <mxGeometry x="490" y="280" width="120" height="80" as="geometry"/>
                </mxCell>
                <mxCell id="100" value="演算法" style="edgeStyle=orthogonalEdgeStyle;html=1;exitX=0.25;exitY=0;exitDx=0;exitDy=0;entryX=1;entryY=0.5;entryDx=0;entryDy=0;fontSize=20;labelBackgroundColor=#18141D;fontColor=#F0F0F0;strokeColor=#F0F0F0;" parent="173" source="12" target="11" edge="1">
                    <mxGeometry relative="1" as="geometry"/>
                </mxCell>
                <mxCell id="164" style="edgeStyle=orthogonalEdgeStyle;html=1;exitX=1;exitY=0.5;exitDx=0;exitDy=0;entryX=0;entryY=0.5;entryDx=0;entryDy=0;strokeColor=#F0F0F0;strokeWidth=1;fontSize=20;fontColor=#F0F0F0;fillColor=#4f4f4f;shape=link;labelBackgroundColor=#18141D;" parent="173" source="12" target="132" edge="1">
                    <mxGeometry relative="1" as="geometry"/>
                </mxCell>
                <mxCell id="12" value="粒子系統" style="rounded=0;whiteSpace=wrap;html=1;fontSize=20;fillColor=#18141D;fontColor=#F0F0F0;labelBorderColor=none;strokeColor=#F0F0F0;" parent="173" vertex="1">
                    <mxGeometry x="490" y="120" width="120" height="60" as="geometry"/>
                </mxCell>
                <mxCell id="20" style="edgeStyle=none;html=1;exitX=0.5;exitY=0;exitDx=0;exitDy=0;entryX=0.5;entryY=1;entryDx=0;entryDy=0;fontSize=20;shape=flexArrow;labelBackgroundColor=#18141D;fontColor=#F0F0F0;strokeColor=#F0F0F0;" parent="173" source="5" target="12" edge="1">
                    <mxGeometry relative="1" as="geometry"/>
                </mxCell>
                <mxCell id="21" value="實例化" style="edgeStyle=none;shape=flexArrow;html=1;fontSize=20;labelBackgroundColor=#18141D;fontColor=#F0F0F0;strokeColor=#F0F0F0;" parent="173" source="5" target="12" edge="1">
                    <mxGeometry relative="1" as="geometry"/>
                </mxCell>
                <mxCell id="99" value="繪圖方法" style="edgeStyle=orthogonalEdgeStyle;html=1;exitX=0;exitY=0.5;exitDx=0;exitDy=0;entryX=0.5;entryY=1;entryDx=0;entryDy=0;fontSize=20;labelBackgroundColor=#18141D;fontColor=#F0F0F0;strokeColor=#F0F0F0;" parent="173" source="7" target="11" edge="1">
                    <mxGeometry relative="1" as="geometry"/>
                </mxCell>
                <mxCell id="7" value="畫筆" style="rounded=0;whiteSpace=wrap;html=1;fontSize=20;fillColor=#18141D;fontColor=#F0F0F0;labelBorderColor=none;strokeColor=#F0F0F0;" parent="173" vertex="1">
                    <mxGeometry x="240" y="120" width="120" height="60" as="geometry"/>
                </mxCell>
                <mxCell id="15" value="推送資料" style="edgeStyle=none;html=1;fontSize=20;entryX=1;entryY=0.5;entryDx=0;entryDy=0;labelBackgroundColor=#18141D;fontColor=#F0F0F0;strokeColor=#F0F0F0;" parent="173" target="7" edge="1">
                    <mxGeometry relative="1" as="geometry">
                        <mxPoint x="490" y="150" as="sourcePoint"/>
                        <mxPoint x="410" y="150" as="targetPoint"/>
                    </mxGeometry>
                </mxCell>
                <mxCell id="4" value="畫筆建構式" style="ellipse;whiteSpace=wrap;html=1;fontSize=20;fillColor=#18141D;fontColor=#F0F0F0;labelBorderColor=none;strokeColor=#F0F0F0;" parent="173" vertex="1">
                    <mxGeometry x="240" y="280" width="120" height="80" as="geometry"/>
                </mxCell>
                <mxCell id="22" value="實例化" style="edgeStyle=none;shape=flexArrow;html=1;fontSize=20;labelBackgroundColor=#18141D;fontColor=#F0F0F0;strokeColor=#F0F0F0;" parent="173" source="4" target="7" edge="1">
                    <mxGeometry relative="1" as="geometry"/>
                </mxCell>
                <mxCell id="175" style="edgeStyle=orthogonalEdgeStyle;html=1;strokeColor=#F0F0F0;strokeWidth=1;fontSize=36;fontColor=#F0F0F0;startArrow=none;startFill=0;endArrow=none;endFill=0;fillColor=#4f4f4f;dashed=1;dashPattern=12 12;labelBackgroundColor=#18141D;" parent="1" edge="1">
                    <mxGeometry relative="1" as="geometry">
                        <mxPoint x="20" y="900" as="targetPoint"/>
                        <mxPoint x="940" y="850" as="sourcePoint"/>
                    </mxGeometry>
                </mxCell>
                <mxCell id="120" value="動畫管理模組" style="swimlane;whiteSpace=wrap;html=1;fontSize=20;fillColor=#18141D;fontColor=#F0F0F0;labelBorderColor=none;strokeColor=#F0F0F0;" parent="1" vertex="1">
                    <mxGeometry x="70" y="880" width="630" height="220" as="geometry"/>
                </mxCell>
                <mxCell id="121" style="edgeStyle=orthogonalEdgeStyle;html=1;exitX=1;exitY=0.5;exitDx=0;exitDy=0;entryX=0;entryY=0.5;entryDx=0;entryDy=0;fontSize=20;shape=link;labelBackgroundColor=#18141D;fontColor=#F0F0F0;strokeColor=#F0F0F0;" parent="120" source="122" target="124" edge="1">
                    <mxGeometry relative="1" as="geometry"/>
                </mxCell>
                <mxCell id="122" value="動畫管理員" style="rounded=0;whiteSpace=wrap;html=1;fontSize=20;fillColor=#18141D;fontColor=#F0F0F0;labelBorderColor=none;strokeColor=#F0F0F0;" parent="120" vertex="1">
                    <mxGeometry x="40" y="125" width="120" height="60" as="geometry"/>
                </mxCell>
                <mxCell id="123" value="切換動畫" style="edgeStyle=orthogonalEdgeStyle;html=1;fontSize=20;labelBackgroundColor=#18141D;fontColor=#F0F0F0;strokeColor=#F0F0F0;" parent="120" source="124" target="125" edge="1">
                    <mxGeometry relative="1" as="geometry"/>
                </mxCell>
                <mxCell id="124" value="管理員物件" style="whiteSpace=wrap;html=1;fontSize=20;rounded=0;fillColor=#18141D;fontColor=#F0F0F0;labelBorderColor=none;strokeColor=#F0F0F0;" parent="120" vertex="1">
                    <mxGeometry x="220" y="125" width="120" height="60" as="geometry"/>
                </mxCell>
                <mxCell id="125" value="執行" style="whiteSpace=wrap;html=1;fontSize=20;rounded=0;fillColor=#18141D;fontColor=#F0F0F0;labelBorderColor=none;strokeColor=#F0F0F0;" parent="120" vertex="1">
                    <mxGeometry x="480" y="125" width="120" height="60" as="geometry"/>
                </mxCell>
                <mxCell id="127" value="" style="edgeStyle=orthogonalEdgeStyle;html=1;fontSize=20;shape=link;labelBackgroundColor=#18141D;fontColor=#F0F0F0;strokeColor=#F0F0F0;" parent="120" source="128" target="124" edge="1">
                    <mxGeometry relative="1" as="geometry"/>
                </mxCell>
                <mxCell id="128" value="監聽" style="whiteSpace=wrap;html=1;fontSize=20;rounded=0;fillColor=#18141D;fontColor=#F0F0F0;labelBorderColor=none;strokeColor=#F0F0F0;" parent="120" vertex="1">
                    <mxGeometry x="220" y="40" width="120" height="60" as="geometry"/>
                </mxCell>
            </root>
        </mxGraphModel>
    </diagram>
</mxfile>